<?xml version="1.0" standalone="no"?>
<!DOCTYPE svg PUBLIC "-//W3C//DTD SVG 20010904//EN"
 "http://www.w3.org/TR/2001/REC-SVG-20010904/DTD/svg10.dtd">
<svg version="1.0" xmlns="http://www.w3.org/2000/svg"
 width="1024.000000pt" height="1024.000000pt" viewBox="0 0 1024.000000 1024.000000"
 preserveAspectRatio="xMidYMid meet">

<g transform="translate(0.000000,1024.000000) scale(0.100000,-0.100000)"
fill="#000000" stroke="none">
<path d="M897 9551 c-44 -29 -85 -83 -125 -168 l-37 -78 0 -140 c0 -124 3
-146 23 -189 12 -27 22 -52 22 -57 0 -4 -31 3 -69 16 -190 64 -350 75 -508 35
-51 -13 -116 -35 -145 -49 l-53 -27 -3 -61 -3 -62 83 38 c122 57 213 74 361
69 129 -5 157 -13 360 -97 72 -31 96 -54 64 -66 -7 -3 -67 13 -134 34 -165 54
-234 65 -368 58 -113 -6 -169 -18 -265 -56 -106 -43 -100 -30 -100 -205 l0
-153 38 -25 c61 -41 113 -65 213 -98 138 -47 341 -53 442 -15 22 9 22 -19 3
-132 -25 -137 -33 -159 -79 -200 -124 -112 -186 -202 -224 -325 -23 -75 -22
-254 1 -333 61 -205 209 -339 417 -379 57 -11 92 -25 140 -56 35 -23 115 -66
178 -96 63 -30 137 -72 165 -93 98 -74 244 -130 412 -156 130 -21 246 -16 379
15 210 50 373 137 457 244 40 50 43 65 11 47 -48 -25 -298 -111 -378 -129
-233 -53 -471 -49 -653 10 l-97 32 64 8 c129 15 232 67 373 189 167 145 228
238 228 350 l0 50 -32 -3 c-34 -3 -38 -8 -79 -101 -27 -61 -97 -133 -152 -157
-57 -25 -170 -44 -220 -36 -23 4 -105 20 -182 37 -184 41 -297 42 -445 5 -61
-15 -133 -26 -171 -26 -61 0 -72 3 -128 41 -98 66 -149 138 -176 251 -41 175
11 368 130 476 185 169 592 217 913 108 199 -68 341 -189 402 -342 29 -75 50
-98 80 -89 20 6 22 12 18 69 -6 91 -45 165 -137 257 -136 135 -356 225 -610
249 -146 14 -375 -7 -508 -46 l-23 -6 25 55 c20 42 27 81 35 178 18 240 72
378 197 510 43 45 104 101 136 125 53 39 152 82 163 71 3 -3 -2 -22 -11 -43
-9 -22 -19 -75 -22 -119 -4 -68 -1 -85 16 -112 26 -41 64 -49 142 -29 140 36
248 127 273 229 9 40 -14 35 -88 -17 -64 -46 -200 -116 -225 -116 -11 0 -13
14 -9 68 6 74 47 170 92 213 14 13 26 30 26 37 0 19 -102 15 -225 -9 -59 -11
-110 -18 -113 -14 -10 11 76 82 133 110 28 14 84 32 125 41 95 20 108 29 79
60 -12 13 -31 27 -42 30 -43 14 9 22 84 14 83 -9 135 -22 274 -69 50 -16 129
-39 177 -49 47 -11 108 -30 134 -41 l48 -21 -31 -33 c-17 -17 -48 -59 -71 -92
-47 -70 -69 -92 -175 -169 -111 -81 -172 -148 -218 -241 -91 -184 -89 -377 6
-501 28 -36 186 -135 342 -213 108 -54 130 -75 177 -168 51 -102 133 -172 232
-198 67 -17 163 -19 215 -5 45 13 108 78 145 152 33 64 41 51 20 -34 -33 -132
-151 -320 -244 -391 -64 -48 -212 -132 -275 -154 -26 -9 -62 -29 -79 -43 -26
-22 -30 -31 -24 -54 7 -28 8 -28 74 -24 117 7 293 102 431 233 123 116 185
224 237 410 25 89 28 116 28 245 0 139 -12 220 -60 393 -5 14 2 17 44 17 l49
0 -5 -48 c-8 -84 56 -173 134 -188 157 -29 280 106 230 252 -21 62 -22 61 20
74 90 30 320 211 359 283 16 31 17 38 5 68 -20 48 -119 149 -199 202 -138 93
-340 146 -496 132 -83 -8 -213 -39 -272 -65 -24 -10 -43 -17 -43 -16 0 2 9 25
21 51 26 59 40 198 28 283 -12 86 -56 176 -118 244 -65 72 -110 89 -164 63
-42 -20 -46 -27 -62 -125 -19 -111 -48 -179 -104 -241 l-49 -54 -29 26 c-49
46 -159 88 -283 109 -36 6 -125 31 -198 56 -163 55 -265 66 -381 40 -80 -18
-120 -36 -141 -61 -13 -15 -11 -21 17 -45 l31 -28 -64 -33 -65 -32 -35 34
c-52 49 -84 120 -100 218 -8 47 -14 90 -14 94 0 4 -11 19 -25 32 -30 30 -78
33 -118 6z m67 -173 c8 -86 46 -176 100 -235 20 -22 36 -46 36 -52 0 -7 -11
-27 -25 -45 -32 -42 -31 -60 1 -93 l27 -27 -23 -18 c-23 -19 -23 -19 -37 13
-7 17 -26 47 -43 65 -16 19 -49 73 -72 122 l-43 87 -3 -62 c-4 -83 43 -207 94
-253 22 -19 34 -37 30 -45 -9 -24 -22 -18 -63 29 -51 58 -90 137 -104 209 -19
107 20 300 73 356 34 37 45 27 52 -51z m1651 31 c65 -72 80 -118 80 -244 0
-106 -1 -113 -36 -185 -20 -41 -48 -90 -64 -108 -30 -36 -81 -67 -89 -53 -3 4
-32 18 -64 29 -64 24 -136 80 -145 112 -4 17 13 40 82 108 103 102 143 174
168 300 9 45 19 82 23 82 4 0 24 -19 45 -41z m649 -544 c95 -20 239 -92 309
-155 58 -52 69 -78 43 -99 -12 -10 -22 -4 -56 32 -54 59 -198 131 -302 152
-168 33 -320 15 -521 -62 -65 -25 -121 -43 -123 -40 -3 3 -3 15 1 26 11 35
222 126 360 155 48 10 226 4 289 -9z m-2504 -362 c0 -5 -5 -25 -10 -45 -9 -33
-17 -39 -68 -59 -77 -30 -234 -33 -304 -6 -27 10 -48 22 -48 25 0 4 40 5 89 4
104 -5 187 14 263 58 52 29 78 37 78 23z m2052 -33 c51 -16 124 -37 163 -45
69 -16 85 -26 85 -54 0 -17 -93 -10 -186 15 -66 17 -164 76 -164 99 0 19 -6
20 102 -15z m400 -32 c10 -9 19 -44 27 -105 6 -50 18 -107 26 -127 27 -64 -7
-109 -76 -104 -35 2 -46 8 -58 30 -14 24 -14 32 1 75 9 26 19 88 21 137 3 59
9 91 18 97 18 12 22 11 41 -3z m-1052 -73 c17 -20 7 -93 -19 -144 -27 -51 -67
-69 -110 -46 -54 27 -93 120 -76 175 9 29 26 21 50 -26 21 -41 54 -55 79 -35
7 6 18 29 25 51 12 42 30 50 51 25z m-728 -1435 c109 -22 168 -29 208 -25 l55
5 -55 -26 c-30 -14 -98 -37 -150 -51 -110 -28 -196 -26 -302 8 -73 24 -181 79
-172 88 14 15 97 29 177 30 61 1 133 -8 239 -29z"/>
<path d="M2609 9088 c-19 -40 -48 -91 -66 -114 -17 -23 -39 -56 -48 -73 -13
-27 -14 -32 -1 -37 39 -15 102 49 138 141 20 50 34 155 21 155 -5 0 -25 -32
-44 -72z"/>
<path d="M3815 8989 c-94 -9 -148 -24 -164 -43 -9 -11 -6 -20 13 -42 l24 -29
389 3 c441 4 560 -3 887 -54 417 -64 830 -190 1151 -351 186 -94 552 -327 695
-442 151 -121 384 -379 489 -539 180 -274 319 -596 406 -940 86 -336 107 -747
55 -1069 -11 -68 -29 -180 -41 -250 -24 -155 -76 -366 -129 -528 -21 -66 -50
-160 -64 -210 -13 -49 -27 -98 -31 -107 -5 -13 1 -18 28 -23 18 -4 47 -5 62
-3 27 3 31 10 82 163 109 322 213 809 244 1138 15 165 6 439 -20 621 -57 383
-159 692 -341 1027 -28 51 -48 94 -46 97 9 8 266 -152 344 -214 252 -201 553
-582 721 -913 l71 -139 -35 -52 c-19 -28 -47 -88 -62 -133 -24 -73 -27 -97
-27 -217 0 -141 13 -209 56 -294 24 -46 107 -138 119 -131 4 3 6 45 3 93 l-5
87 34 -62 c46 -83 120 -168 187 -212 58 -40 117 -64 131 -55 5 3 0 27 -10 55
l-19 50 39 -36 c127 -115 300 -222 384 -239 53 -10 56 1 24 94 -26 78 -29 97
-29 230 0 322 -49 499 -173 629 -23 24 -60 52 -82 62 l-40 19 93 -6 c64 -5 92
-4 92 4 0 26 -67 85 -140 121 -95 47 -193 66 -307 58 l-81 -6 -25 62 c-78 194
-174 371 -313 582 -163 247 -327 439 -552 646 -214 198 -304 269 -557 441
-203 137 -313 199 -465 263 -74 31 -153 64 -175 73 -22 9 -115 65 -208 124
-341 216 -685 360 -1098 462 -305 75 -556 116 -829 136 -157 12 -639 11 -755
-1z"/>
<path d="M4080 8780 c0 -67 95 -154 247 -227 77 -37 122 -66 147 -93 l36 -40
-6 -108 c-6 -96 -5 -112 14 -147 54 -105 139 -184 242 -225 30 -12 116 -35
191 -50 239 -49 344 -114 399 -247 43 -105 79 -160 149 -226 134 -128 260
-181 431 -182 95 0 111 3 166 28 118 55 162 129 171 285 6 95 7 98 42 133 32
32 43 37 106 43 100 10 141 23 180 57 42 38 58 85 53 158 -8 106 -87 187 -319
326 -590 352 -1297 534 -2076 535 -168 0 -173 -1 -173 -20z"/>
<path d="M997 8453 c-11 -11 -8 -48 5 -61 7 -7 24 -12 39 -12 26 0 27 -2 31
-70 3 -56 8 -74 28 -95 50 -53 99 -8 107 99 4 46 10 66 19 66 28 0 13 29 -18
35 -18 4 -57 15 -86 26 -53 19 -113 25 -125 12z"/>
<path d="M890 7683 c-8 -3 -25 -14 -37 -25 -22 -20 -22 -20 -51 1 -39 27 -97
28 -112 2 -26 -49 1 -105 65 -135 33 -16 35 -19 35 -69 0 -111 102 -239 218
-274 88 -27 185 -23 253 9 106 49 185 156 196 264 l6 54 36 0 c45 0 126 49
143 86 16 34 -6 75 -44 85 -32 8 -107 -5 -153 -27 -32 -15 -36 -15 -63 4 -45
33 -72 35 -122 10 -53 -27 -61 -53 -31 -102 32 -51 28 -101 -12 -141 -62 -62
-158 -55 -205 15 -26 38 -25 65 1 135 17 44 11 66 -26 90 -27 17 -76 27 -97
18z m40 -113 c-61 -120 20 -244 170 -257 77 -7 136 15 184 67 42 46 54 97 37
158 -6 25 -10 47 -7 49 3 3 16 -6 30 -20 72 -72 23 -217 -95 -282 -47 -26 -64
-30 -129 -30 -57 0 -85 6 -116 22 -47 25 -99 76 -121 117 -18 36 -20 114 -3
147 10 20 57 67 68 69 1 0 -7 -18 -18 -40z"/>
<path d="M7174 7461 c-96 -58 -117 -179 -63 -366 46 -160 30 -202 -87 -239
-114 -36 -164 -100 -172 -221 -7 -107 12 -154 108 -264 43 -50 82 -100 85
-111 4 -11 1 -62 -5 -114 -13 -112 -2 -199 35 -262 37 -63 118 -130 187 -155
34 -13 100 -52 151 -91 97 -72 161 -98 239 -98 72 0 76 8 89 155 46 533 -91
1112 -386 1625 -43 74 -82 141 -88 148 -14 18 -57 15 -93 -7z"/>
<path d="M3774 7092 c-144 -51 -279 -177 -350 -326 -56 -118 -74 -188 -81
-311 -11 -191 35 -333 139 -432 77 -72 131 -99 261 -132 132 -34 179 -55 224
-103 32 -33 38 -51 68 -198 21 -104 53 -166 123 -241 114 -122 259 -185 407
-177 71 4 95 10 158 41 163 81 364 316 407 476 40 151 33 222 -41 382 -56 123
-65 158 -74 289 -9 128 -20 170 -46 170 -33 0 -152 59 -187 93 -19 18 -51 69
-72 115 -21 45 -40 83 -42 83 -2 1 -64 4 -138 8 -100 5 -144 12 -170 25 -19
10 -78 60 -130 110 -125 121 -163 139 -300 143 -83 3 -116 0 -156 -15z"/>
<path d="M427 6910 c-15 -38 -27 -74 -27 -79 0 -5 -25 -84 -55 -175 -108 -327
-145 -570 -145 -961 -1 -512 64 -775 343 -1405 52 -118 106 -242 120 -275 14
-33 48 -114 77 -180 93 -216 228 -588 265 -727 19 -75 48 -169 63 -210 26 -71
27 -79 27 -293 0 -241 -15 -368 -61 -512 -34 -106 -131 -487 -140 -545 -3 -26
-11 -51 -18 -57 -6 -5 -61 -16 -123 -25 -190 -27 -376 -78 -402 -110 -28 -34
21 -67 131 -90 71 -15 275 -41 511 -66 542 -57 1794 -96 2707 -86 660 8 1441
23 1633 32 131 6 137 7 137 28 1 53 87 185 243 371 l59 70 -89 6 c-48 4 -174
7 -280 8 -105 1 -194 4 -196 9 -2 4 0 75 6 157 9 145 9 154 -18 275 -41 188
-52 262 -64 422 -13 171 -13 335 -1 363 7 17 9 17 9 3 1 -10 6 -18 11 -18 6 0
10 -11 10 -25 0 -13 5 -47 11 -75 9 -40 15 -51 35 -56 83 -21 197 72 219 178
3 16 10 28 15 28 5 0 34 -33 64 -74 82 -111 151 -161 238 -172 84 -11 186 46
220 123 18 40 19 59 13 206 l-6 162 61 43 c33 23 65 54 70 68 12 30 13 134 3
134 -5 0 -33 -16 -63 -35 -85 -54 -313 -163 -440 -210 -205 -75 -237 -93 -258
-139 -11 -23 -25 -66 -32 -96 -17 -74 -27 -90 -53 -90 -38 0 -74 44 -88 105
-11 50 -10 66 10 148 12 51 32 155 44 232 l23 140 63 8 c117 14 435 138 636
247 39 21 89 44 112 50 44 14 53 31 53 110 0 66 -5 72 -53 53 -23 -9 -60 -28
-82 -41 -22 -14 -62 -36 -90 -49 -27 -13 -70 -36 -94 -50 -92 -55 -500 -198
-516 -181 -3 2 22 139 55 304 101 507 138 738 170 1084 19 196 6 483 -21 501
-8 5 -30 8 -49 7 l-35 -3 -6 -210 c-3 -115 -9 -232 -13 -260 -3 -27 -15 -126
-26 -220 -12 -93 -36 -246 -55 -340 -19 -93 -46 -242 -60 -330 -13 -88 -40
-236 -59 -330 -19 -93 -44 -235 -56 -315 -12 -80 -26 -149 -31 -154 -5 -6 -9
-8 -9 -5 0 23 43 340 50 373 23 101 9 149 -66 215 -51 45 -115 69 -205 78 -49
5 -63 2 -108 -23 -78 -42 -168 -144 -218 -246 -30 -62 -53 -94 -80 -114 -102
-75 -124 -110 -147 -235 -9 -48 -25 -96 -37 -113 -19 -25 -20 -36 -14 -95 9
-85 38 -179 62 -196 17 -13 17 -14 1 -15 -13 0 -16 -6 -13 -27 15 -93 27 -231
32 -388 6 -175 5 -185 -27 -345 -18 -91 -37 -168 -43 -172 -12 -7 -67 18 -67
30 0 5 13 48 30 97 47 140 61 306 40 472 -25 193 -44 281 -71 339 -16 34 -44
122 -63 195 -44 166 -134 435 -216 639 -34 85 -75 189 -90 231 -16 42 -43 107
-60 145 -81 176 -146 360 -210 594 -13 49 -30 67 -69 75 l-34 7 7 -91 c4 -51
18 -134 31 -185 41 -159 139 -429 220 -611 15 -33 47 -112 70 -175 24 -63 58
-151 75 -195 56 -142 133 -365 128 -370 -22 -22 -352 -49 -513 -42 -178 8
-537 52 -670 81 -328 73 -636 188 -869 326 -178 105 -392 292 -582 511 -108
125 -284 401 -387 611 -45 93 -87 168 -94 168 -19 0 -35 -66 -28 -113 11 -62
51 -170 105 -277 l48 -96 -63 4 c-60 4 -64 3 -101 -31 -37 -34 -39 -38 -39
-99 0 -56 8 -80 68 -218 125 -283 311 -792 342 -935 9 -44 26 -95 36 -113 17
-30 20 -62 26 -265 6 -237 -3 -394 -33 -566 -19 -107 -53 -195 -78 -199 -37
-7 -39 13 -12 115 14 55 33 144 41 199 36 236 27 624 -15 683 -11 14 -31 76
-45 136 -14 61 -35 142 -46 180 -29 96 -189 505 -299 765 -205 482 -230 541
-270 656 -23 65 -50 140 -60 165 -27 68 -77 278 -102 430 -20 119 -23 167 -22
429 1 431 28 585 189 1079 38 117 36 137 -22 171 -19 11 -35 20 -36 20 -2 0
-15 -31 -30 -70z m1954 -3686 c166 -60 240 -80 413 -115 l118 -23 -6 -56 c-24
-207 -21 -243 26 -296 46 -52 96 -74 170 -74 111 0 189 55 311 217 33 43 54
53 63 30 3 -8 27 -31 55 -52 57 -43 78 -79 107 -184 l21 -74 -30 -141 c-34
-162 -60 -252 -100 -353 -22 -57 -95 -325 -123 -455 -8 -34 -11 -34 -451 -53
-608 -25 -885 -30 -885 -15 0 7 7 58 16 114 23 147 16 258 -32 446 -38 153
-38 158 -38 335 1 167 4 193 38 355 20 96 48 236 62 310 14 74 28 145 30 158
l4 22 42 -21 c23 -12 108 -45 189 -75z m2696 9 c-3 -10 -5 -2 -5 17 0 19 2 27
5 18 2 -10 2 -26 0 -35z m771 -249 c6 -81 9 -151 5 -156 -19 -31 -133 -49
-174 -28 -10 6 -42 45 -70 87 -28 41 -66 92 -85 112 l-33 37 72 13 c40 7 115
28 167 46 52 18 98 33 101 34 3 0 11 -65 17 -145z m-2658 66 c83 -16 153 -30
156 -30 28 0 -139 -201 -187 -226 -26 -13 -36 -13 -86 0 -84 22 -86 26 -68
126 8 47 15 102 15 123 0 20 4 37 9 37 6 0 78 -13 161 -30z m878 -101 c18 -63
44 -152 59 -199 21 -70 26 -112 30 -241 6 -178 -7 -261 -57 -367 -16 -34 -34
-90 -40 -124 -7 -35 -27 -126 -45 -203 -18 -77 -37 -160 -42 -185 l-8 -45 -88
-3 c-81 -3 -87 -1 -87 17 0 28 73 278 97 333 l21 46 59 -5 60 -5 6 83 c3 46
15 127 26 179 18 89 24 152 22 259 -1 35 -4 41 -14 33 -23 -20 -139 -42 -218
-42 l-76 0 -17 -87 c-19 -98 -63 -240 -77 -248 -13 -8 -14 -15 32 177 35 143
40 177 31 201 -10 26 -9 28 6 20 9 -4 56 -8 104 -8 80 0 89 2 130 30 54 38 97
120 104 195 10 111 -37 103 -121 -19 -55 -81 -79 -95 -140 -86 -68 11 -79 25
-104 122 l-23 88 -85 83 -86 82 74 0 c83 0 400 28 408 35 15 15 29 -13 59
-116z m-383 -963 c23 -8 39 -20 37 -28 -2 -7 -26 -71 -54 -143 -28 -71 -59
-154 -70 -182 -20 -51 -22 -53 -59 -53 -32 0 -39 4 -39 19 0 17 89 355 105
400 5 14 12 13 80 -13z m576 -82 c41 -9 80 -22 87 -29 11 -10 2 -47 -52 -210
-37 -108 -71 -206 -77 -217 -10 -18 -17 -20 -72 -13 -78 8 -90 18 -82 64 20
119 99 421 110 421 7 0 46 -7 86 -16z m-3083 -23 c23 -4 45 -11 49 -15 4 -4
-4 -28 -19 -54 -14 -26 -43 -103 -63 -172 -59 -198 -60 -200 -106 -200 -24 0
-42 5 -45 13 -6 17 46 278 76 377 20 66 23 71 43 65 12 -4 41 -10 65 -14z
m3722 -11 c108 -26 152 -86 158 -215 3 -70 1 -83 -18 -108 -29 -36 -123 -84
-202 -101 -84 -19 -260 -29 -342 -21 -62 7 -66 9 -66 32 0 25 68 298 97 387
l16 49 156 -6 c86 -4 176 -11 201 -17z m-3155 -28 c60 -31 83 -56 121 -139 49
-104 53 -137 23 -169 -67 -72 -173 -97 -414 -98 l-190 -1 2 40 c3 48 94 332
119 370 l18 28 141 -5 c116 -4 147 -9 180 -26z"/>
<path d="M5000 6934 c0 -4 30 -64 67 -133 37 -69 79 -151 94 -181 26 -51 101
-274 129 -382 7 -26 21 -55 31 -64 20 -18 17 -21 34 32 10 31 -16 190 -46 279
-49 146 -127 278 -233 393 -39 42 -76 70 -76 56z"/>
<path d="M506 6589 c-28 -70 -84 -300 -100 -409 -35 -239 -52 -566 -36 -715
15 -145 50 -365 61 -387 12 -22 69 -24 108 -3 58 29 89 188 70 357 -14 127 -9
148 62 225 108 115 163 282 142 428 -18 125 -51 179 -180 292 -34 29 -39 49
-42 166 -1 36 -35 87 -59 87 -6 0 -17 -18 -26 -41z"/>
<path d="M1995 6043 c-150 -19 -366 -86 -498 -154 -102 -52 -255 -158 -296
-204 -17 -20 -34 -47 -37 -61 -17 -66 59 -176 130 -189 55 -11 90 3 166 64
133 109 363 207 543 231 149 21 372 -17 531 -89 62 -28 205 -120 279 -179 21
-17 54 -36 72 -42 95 -31 209 101 176 203 -24 73 -210 215 -394 302 -182 85
-497 141 -672 118z"/>
<path d="M6676 5715 c-3 -9 -6 -58 -6 -108 0 -125 -13 -230 -55 -442 -45 -228
-47 -235 -105 -385 -70 -180 -101 -246 -153 -324 -26 -39 -47 -73 -47 -77 0
-10 535 -20 865 -17 l280 3 22 70 c77 248 107 365 111 443 l5 83 -65 67 c-35
37 -83 92 -106 124 -66 90 -91 103 -197 103 -82 0 -95 -3 -155 -34 -119 -62
-225 -193 -270 -336 -16 -52 -180 -371 -202 -395 -10 -10 -32 -40 -49 -67 -17
-26 -29 -40 -26 -31 3 9 9 34 13 55 4 21 24 81 44 133 148 375 227 826 192
1095 l-7 50 -41 3 c-31 2 -43 -1 -48 -13z"/>
<path d="M1955 5565 c-162 -36 -344 -127 -442 -221 -45 -43 -53 -55 -53 -87 0
-67 61 -153 121 -172 35 -12 84 4 140 44 147 105 280 147 434 138 140 -9 263
-57 373 -148 41 -34 53 -39 98 -39 61 0 94 22 124 81 56 108 0 190 -210 306
-166 92 -419 134 -585 98z"/>
<path d="M2055 5086 c-105 -33 -188 -105 -201 -174 -17 -88 26 -206 96 -263
103 -86 272 -73 360 27 102 117 99 259 -9 357 -65 59 -162 80 -246 53z"/>
<path d="M5966 4589 c-104 -42 -209 -141 -257 -240 -52 -106 -63 -273 -24
-365 31 -74 97 -124 165 -124 38 0 173 54 216 86 30 22 32 28 36 101 4 93 40
179 106 261 54 66 59 92 32 164 -27 72 -71 112 -140 127 -66 14 -76 14 -134
-10z"/>
<path d="M6353 4239 c-37 -11 -123 -101 -124 -133 0 -11 -1 -488 0 -1058 0
-713 -3 -1039 -10 -1044 -6 -3 -111 -142 -235 -308 -123 -165 -257 -343 -297
-394 -84 -109 -85 -111 -86 -178 -1 -78 23 -147 66 -184 73 -65 -88 -60 2126
-60 1508 0 2033 3 2058 12 61 20 116 65 133 108 9 22 19 77 22 123 6 81 5 83
-31 142 -80 131 -457 655 -522 726 l-24 26 1 1029 c0 725 -3 1041 -11 1069
-16 56 -75 110 -136 123 -59 13 -2882 14 -2930 1z m1529 -146 c22 -20 23 -42
2 -71 -40 -58 -118 5 -84 69 13 24 57 25 82 2z m-1288 -35 c7 -11 7 -26 0 -45
-8 -23 -15 -28 -44 -28 -31 0 -35 3 -38 28 -6 54 55 88 82 45z m164 10 c23
-23 3 -98 -26 -98 -23 0 -52 30 -52 53 0 43 51 72 78 45z m171 -10 c21 -25 17
-49 -10 -74 -22 -20 -45 -13 -61 20 -9 20 -8 30 6 51 20 31 42 32 65 3z m1901
-17 c0 -47 -18 -63 -62 -59 -32 3 -33 5 -36 51 l-3 47 50 0 51 0 0 -39z m160
-6 c0 -40 -3 -47 -27 -56 -15 -5 -38 -8 -50 -4 -20 5 -23 12 -23 55 l0 50 50
0 50 0 0 -45z m160 -5 l0 -50 -45 0 -45 0 0 50 0 50 45 0 45 0 0 -50z m95
-1020 l0 -890 -1412 0 -1413 0 0 874 c0 481 -3 881 -6 890 -6 15 123 16 1412
16 l1419 0 0 -890z m231 -1256 c67 -98 171 -251 230 -339 59 -88 120 -176 135
-196 36 -45 38 -84 7 -93 -13 -3 -420 -6 -905 -6 l-883 0 0 -53 0 -54 -245 -7
c-135 -4 -250 -4 -256 0 -7 4 -8 24 -4 54 l7 48 -911 7 -910 8 9 22 c5 13 62
95 128 182 65 87 177 239 247 338 70 99 143 199 162 222 l34 43 182 2 c100 2
783 3 1517 2 l1334 -1 122 -179z"/>
<path d="M7657 3680 c-244 -39 -452 -125 -643 -268 -106 -79 -135 -112 -141
-158 -7 -56 39 -140 90 -167 56 -29 89 -17 239 82 146 96 256 147 405 188 83
23 118 27 223 26 272 -1 478 -71 691 -236 87 -68 133 -84 182 -63 40 16 79 65
97 119 10 33 9 45 -4 82 -50 130 -373 315 -652 375 -112 24 -388 35 -487 20z"/>
<path d="M7635 3206 c-169 -45 -325 -126 -419 -219 -57 -56 -58 -59 -53 -103
10 -94 97 -171 182 -162 28 4 61 20 110 56 140 102 253 145 380 145 170 0 298
-47 451 -168 30 -24 47 -30 86 -30 41 0 52 5 83 36 62 62 74 138 31 204 -30
46 -137 125 -229 169 -134 64 -234 88 -397 92 -118 4 -146 1 -225 -20z"/>
<path d="M7800 2740 c-147 -25 -225 -111 -224 -245 1 -163 123 -289 279 -289
144 0 260 129 260 289 -1 82 -23 134 -81 185 -63 55 -144 76 -234 60z"/>
<path d="M6450 1875 c0 0 -4 -15 -9 -33 l-10 -32 280 1 279 0 0 24 c0 19 -6
25 -32 29 -22 4 -508 14 -508 11z"/>
<path d="M8384 1865 c-3 -8 -4 -22 -2 -32 3 -16 19 -19 143 -25 77 -4 159 -5
183 -2 39 5 42 8 36 27 -14 47 -18 48 -191 46 -128 0 -165 -4 -169 -14z"/>
<path d="M8878 1873 c-43 -4 -48 -7 -48 -29 0 -33 39 -47 110 -40 30 3 103 5
163 6 95 0 107 2 107 18 0 9 -4 22 -8 28 -8 13 -241 25 -324 17z"/>
<path d="M7040 1850 c-6 -11 -8 -25 -5 -30 4 -6 56 -10 120 -10 94 0 114 3
119 16 16 42 11 44 -109 44 -104 0 -115 -2 -125 -20z"/>
<path d="M7337 1863 c-4 -3 -7 -17 -7 -30 0 -22 2 -23 94 -23 98 0 112 6 101
40 -6 18 -15 20 -94 20 -48 0 -91 -3 -94 -7z"/>
<path d="M7582 1843 l3 -28 100 0 100 0 3 28 3 27 -106 0 -106 0 3 -27z"/>
<path d="M7854 1848 c3 -13 6 -26 6 -30 0 -9 161 -11 184 -2 22 8 20 31 -3 44
-11 5 -59 10 -107 10 -85 0 -86 0 -80 -22z"/>
<path d="M8092 1843 l3 -28 110 0 110 0 0 25 0 25 -113 3 -113 3 3 -28z"/>
<path d="M6382 1763 c-11 -10 -23 -28 -27 -40 -5 -19 -1 -23 27 -27 18 -3 101
-4 183 -3 l150 2 3 34 c2 20 -2 37 -10 42 -7 5 -79 9 -159 9 -126 0 -150 -3
-167 -17z"/>
<path d="M6823 1773 c-16 -3 -24 -14 -29 -39 -3 -19 -5 -36 -3 -38 2 -2 52 -1
112 2 l107 5 0 38 0 39 -82 -1 c-46 -1 -93 -4 -105 -6z"/>
<path d="M7103 1770 c-17 -7 -23 -18 -23 -40 l0 -30 80 0 c44 0 83 -1 88 -2 4
-2 8 16 10 40 l3 42 -68 -1 c-37 0 -78 -4 -90 -9z"/>
<path d="M7332 1731 l5 -49 -46 -9 c-41 -7 -46 -11 -52 -43 -4 -19 -5 -38 -3
-42 3 -5 67 -8 143 -8 135 0 139 1 145 23 17 63 13 67 -71 67 -74 0 -116 11
-96 23 5 3 46 7 91 9 l82 3 0 37 0 38 -101 0 -102 0 5 -49z"/>
<path d="M7590 1751 c0 -17 4 -32 9 -36 17 -10 168 -18 173 -9 3 5 3 24 1 42
l-5 32 -89 0 -89 0 0 -29z"/>
<path d="M7834 1749 c3 -17 6 -35 6 -40 0 -5 45 -9 101 -9 l100 0 -3 38 -3 37
-104 3 -104 3 7 -32z"/>
<path d="M8110 1750 c0 -40 23 -50 119 -50 l81 0 0 40 0 40 -100 0 -100 0 0
-30z"/>
<path d="M8382 1743 l3 -38 98 -9 c113 -10 123 -5 113 48 l-7 36 -105 0 -105
0 3 -37z"/>
<path d="M8686 1773 c-26 -4 -28 -7 -22 -36 3 -17 7 -31 9 -33 1 -1 52 -3 112
-5 l110 -4 3 34 c2 20 -2 37 -10 42 -13 9 -148 10 -202 2z"/>
<path d="M9012 1773 c-31 -4 -33 -6 -30 -41 l3 -37 105 -3 c58 -2 129 0 158 3
l52 6 -27 40 -28 39 -100 -2 c-55 -1 -115 -3 -133 -5z"/>
<path d="M6719 1672 l-76 -3 -11 -36 c-6 -21 -9 -39 -6 -42 10 -10 158 -13
194 -4 31 8 35 13 38 45 3 34 1 36 -30 39 -18 2 -67 3 -109 1z"/>
<path d="M6973 1672 c-25 -4 -53 -37 -53 -64 0 -25 28 -29 155 -26 l110 3 0
40 0 40 -95 5 c-52 3 -105 4 -117 2z"/>
<path d="M7730 1671 c-123 -6 -140 -11 -140 -41 0 -43 24 -50 161 -50 l129 0
0 38 c0 34 -15 65 -29 60 -4 -1 -58 -4 -121 -7z"/>
<path d="M8011 1673 l-53 -4 7 -37 c4 -20 9 -39 12 -42 8 -9 203 -12 203 -3 0
4 -5 24 -10 44 -8 30 -16 38 -41 43 -17 3 -39 5 -48 4 -9 -1 -40 -3 -70 -5z"/>
<path d="M8240 1650 c0 -65 9 -70 125 -70 104 0 105 0 105 24 0 13 -8 34 -18
46 -15 19 -30 22 -115 26 l-97 5 0 -31z"/>
<path d="M8860 1645 c0 -58 13 -64 135 -65 252 -2 385 0 385 8 0 5 -16 27 -35
50 l-36 41 -224 -2 -225 -1 0 -31z"/>
<path d="M6289 1641 c-61 -61 -33 -73 154 -62 l119 6 14 40 c7 22 14 41 14 43
0 1 -61 2 -136 2 l-136 0 -29 -29z"/>
<path d="M8540 1648 c0 -13 3 -33 6 -45 6 -22 10 -23 135 -23 82 0 129 4 129
10 0 6 -7 26 -14 45 l-15 35 -120 0 c-119 0 -121 0 -121 -22z"/>
<path d="M6454 1551 c-200 -5 -224 -8 -243 -25 -30 -27 -65 -86 -56 -94 4 -4
154 -8 333 -10 l327 -3 26 60 27 59 -22 6 c-41 11 -173 13 -392 7z"/>
<path d="M6948 1543 c-9 -11 -38 -97 -38 -113 0 -4 396 -6 880 -6 580 1 880 4
880 11 0 19 -60 115 -73 116 -6 0 -378 1 -825 2 -624 2 -816 -1 -824 -10z"/>
<path d="M8716 1512 c9 -20 20 -47 25 -59 5 -13 14 -23 21 -23 7 0 172 -2 366
-4 211 -2 355 0 358 6 5 8 -18 44 -63 95 -19 21 -23 21 -371 22 l-352 0 16
-37z"/>
<path d="M7818 1372 l-476 -2 -32 -58 c-18 -31 -41 -68 -51 -81 -40 -50 -34
-51 440 -51 473 0 691 7 691 23 0 5 -18 38 -40 73 -22 35 -40 70 -40 78 0 8
-3 16 -7 18 -5 2 -222 2 -485 0z"/>
<path d="M1820 3911 c0 -10 11 -30 25 -45 34 -37 160 -95 221 -102 44 -5 52
-3 73 20 17 18 21 30 15 36 -6 6 -53 22 -105 35 -52 14 -122 37 -157 50 -74
30 -72 30 -72 6z"/>
</g>
</svg>
